Coordinates
version=1
nRows=16
nColumns=36
inDegrees=yes

Units are S.I. units (second, meters, Newtons, ...)
If the header above contains a line with 'inDegrees', this indicates whether rotational values are in degrees (yes) or radians (no).

endheader
time	pelvis_tilt	pelvis_list	pelvis_rotation	pelvis_tx	pelvis_ty	pelvis_tz	hip_flexion_r	hip_adduction_r	hip_rotation_r	knee_angle_r	knee_angle_r_beta	ankle_angle_r	subtalar_angle_r	mtp_angle_r	hip_flexion_l	hip_adduction_l	hip_rotation_l	knee_angle_l	knee_angle_l_beta	ankle_angle_l	subtalar_angle_l	mtp_angle_l	lumbar_extension	lumbar_bending	lumbar_rotation	arm_flex_r	arm_add_r	arm_rot_r	elbow_flex_r	pro_sup_r	arm_flex_l	arm_add_l	arm_rot_l	elbow_flex_l	pro_sup_l
      1.19000000	     -0.16856091	      0.32012002	     -1.98036153	     -0.72143513	      1.52065825	     -0.57314596	      3.53484239	     -1.69054927	     -1.10123399	     28.77555424	      0.50222817	     -4.58025887	    -11.85053851	     -7.37505385	      7.93663891	     -2.86044345	     -3.12284759	     33.70980209	      0.58834704	    -16.94464751	    -13.61526126	     -7.37505385	     -9.45276056	      1.71580295	     -6.62052726	    115.96791529	    -38.67096289	     48.29642046	     93.87990656	     64.96735462	    141.20387999	    -75.72078925	     71.39706784	    101.66362746	     74.91800766
      1.20000000	      0.30888264	      0.15284750	     -1.89163910	     -0.71041184	      1.52127782	     -0.57401392	      3.30608676	     -1.61747924	     -1.71833736	     27.25384260	      0.47566929	     -3.96978611	    -11.35763767	     -7.37803201	      7.33939894	     -3.15531289	     -3.69040013	     31.84158572	      0.55574051	    -16.06977108	    -13.25055265	     -7.37803201	     -9.95771689	      1.67278185	     -5.41368718	    118.80040276	    -43.01986196	     51.43665723	     95.47768212	     65.35730372	    142.95880643	    -75.30108905	     73.29168059	    101.05998850	     75.41780993
      1.21000000	      0.64255521	      0.00764302	     -1.82178694	     -0.70029569	      1.52291646	     -0.57447626	      3.21831114	     -1.51026963	     -2.24359181	     25.58273097	      0.44650289	     -3.66259971	    -11.03473585	     -7.38149124	      6.89280264	     -3.37909709	     -4.21129968	     29.87451137	      0.52140859	    -15.38778559	    -12.97152033	     -7.38149124	    -10.38766290	      1.55243140	     -4.13676713	    122.14830228	    -47.58484012	     55.01469699	     97.03469188	     65.24833236	    145.38407820	    -74.80228958	     76.00658816	    100.37043691	     75.88344330
      1.22000000	      0.87635196	     -0.13514743	     -1.72793749	     -0.69029074	      1.52325355	     -0.57478180	      3.26210817	     -1.38704140	     -2.80348559	     23.92141348	      0.41750743	     -3.42328723	    -10.40589252	     -7.43305631	      6.56781016	     -3.57938919	     -4.71301197	     27.88964368	      0.48676611	    -14.61014621	    -12.35697991	     -7.43305631	    -10.81959461	      1.54610483	     -3.68456849	    126.05683531	    -51.02275750	     59.48123230	     98.01559877	     59.20286667	    153.47835805	    -75.15751852	     84.59737576	     99.92083894	     74.25370282
      1.23000000	      1.05864507	     -0.23539037	     -1.63353802	     -0.68024178	      1.52113689	     -0.57532994	      3.37770783	     -1.27298871	     -3.30980287	     22.29390151	      0.38910198	     -3.12978981	     -9.76102340	     -7.43611197	      6.33745533	     -3.71574021	     -5.18821368	     25.99410063	      0.45368264	    -13.70203144	    -11.67432103	     -7.43611197	    -11.13555683	      1.36937316	     -2.34390489	    131.62361981	    -55.29883092	     65.02270443	     98.81530159	     59.69278738	    156.46492391	    -74.32592853	     87.96320397	     98.75776358	     74.80079885
      1.24000000	      1.16930375	     -0.37680206	     -1.58256433	     -0.67047796	      1.51911144	     -0.57636196	      3.57829621	     -1.10903288	     -3.78434192	     20.66713823	      0.36070961	     -3.08181750	     -8.92091981	     -7.43959353	      6.18976376	     -3.86282602	     -5.62147092	     24.11485213	      0.42088357	    -13.02168722	    -10.89497889	     -7.43959353	    -11.35958046	      1.44081497	     -1.24755971	    138.53477017	    -58.46148043	     72.15597623	     98.96993565	     59.31628184	    160.41157436	    -74.05286708	     92.43375570	     97.68019369	     75.15454431
      1.25000000	      1.17278850	     -0.47266522	     -1.52393909	     -0.66055440	      1.51778837	     -0.57709457	      3.89981706	     -0.97560031	     -4.22197065	     19.06383339	      0.33272666	     -3.16388245	     -7.98981865	     -7.44262055	      6.16285943	     -3.95899761	     -6.06395342	     22.24241360	      0.38820335	    -12.54527951	     -9.95308565	     -7.44262055	    -11.41768580	      1.41265602	     -0.32284262	    145.79446797	    -61.10425783	     79.74927980	     98.95324049	     58.56285334	    164.68231458	    -73.73326555	     97.39297242	     96.67509055	     75.39277395
      1.26000000	      1.07485236	     -0.57830126	     -1.47259415	     -0.64987987	      1.51522057	     -0.57739630	      4.33562422	     -0.81489915	     -4.56410364	     17.50715491	      0.30555750	     -3.40631754	     -6.86951114	     -7.44551159	      6.24412020	     -4.05392380	     -6.49547670	     20.38874245	      0.35585069	    -12.22513156	     -8.86381783	     -7.44551159	    -11.26866299	      1.47772583	      0.45749899	    153.62368717	    -62.93654319	     88.07245828	     98.54426124	     57.55059243	    169.15199438	    -73.58655960	    102.66803426	     95.68701137	     75.51405836
      1.27000000	      0.83401647	     -0.66621710	     -1.43846593	     -0.63861129	      1.51056485	     -0.57791037	      4.94633473	     -0.66984423	     -4.81394905	     16.06784306	      0.28043677	     -3.84845102	     -5.83321830	     -7.44905347	      6.50355305	     -4.11172452	     -6.86991953	     18.63160840	      0.32518291	    -12.13281410	     -7.84944365	     -7.44905347	    -10.78462600	      1.58860266	      1.17465563	    161.82638453	    -63.94991583	     96.93681201	     97.69311080	     56.35465579	    172.77018042	    -73.45463134	    107.19226222	     94.61695155	     75.43060620
      1.28000000	      0.58930172	     -0.72532349	     -1.44717873	     -0.62692234	      1.50397659	     -0.57883853	      5.57445107	     -0.57022497	     -5.01819308	     14.72257212	      0.25695736	     -4.40208078	     -4.69136167	     -7.45203046	      6.78506680	     -4.13315575	     -7.26562816	     17.01165837	      0.29690945	    -11.94874957	     -6.69344816	     -7.45203046	    -10.06514612	      1.69521605	      1.82662606	    169.15322957	    -64.15662137	    105.02218341	     96.12890034	     55.48556665	    175.16197817	    -73.15356381	    110.54801600	     93.21611984	     75.49932022
      1.29000000	      0.29170341	     -0.78150535	     -1.48512462	     -0.61461676	      1.49535826	     -0.57936408	      6.28056313	     -0.47739182	     -5.13948592	     13.46752835	      0.23505271	     -5.04218886	     -3.59601270	     -7.45477802	      7.13073146	     -4.15589274	     -7.66026620	     15.51616140	      0.27080810	    -11.80362230	     -5.57790556	     -7.45477802	     -9.05132345	      1.85363536	      2.34895022	    174.83177041	    -63.58370582	    111.62777764	     93.88063207	     54.87759634	    176.22589918	    -72.84164309	    112.52724616	     91.49244737	     75.67315086
      1.30000000	     -0.08609071	     -0.80322678	     -1.53384469	     -0.60221318	      1.48630384	     -0.57896739	      7.09449450	     -0.42018192	     -5.20216848	     12.32478082	      0.21510800	     -5.77821938	     -2.52515865	     -7.45769046	      7.55537676	     -4.14594706	     -7.96999489	     14.09541966	      0.24601148	    -11.62972977	     -4.55699499	     -7.45769046	     -7.65180121	      1.92232504	      2.51475400	    177.17347867	    -62.93161657	    115.08913915	     91.07905689	     54.49028271	    176.84589973	    -72.48050678	    114.14310787	     89.59472182	     75.95354433
      1.31000000	     -0.45064518	     -0.79232438	     -1.57548121	     -0.59073220	      1.47840709	     -0.57807714	      7.86213377	     -0.39961922	     -5.18631927	     11.16569918	      0.19487821	     -6.67559548	     -1.49602051	     -7.45800694	      7.97013429	     -4.11080153	     -8.29139717	     12.71817146	      0.22197397	    -11.51587934	     -3.60714483	     -7.45800694	     -6.23780478	      1.96113393	      2.52413862	    177.66329517	    -62.51951411	    116.24722833	     88.11603939	     54.45146211	    177.08177820	    -72.34739029	    115.16419443	     87.82155904	     76.14296972
      1.32000000	     -0.86663995	     -0.73840150	     -1.69254418	     -0.58002241	      1.46976471	     -0.57716286	      8.74350673	     -0.42840046	     -5.13977668	     10.13028222	      0.17680678	     -7.61030881	     -0.35149041	     -7.46109810	      8.46592957	     -4.05759202	     -8.70635289	     11.44242200	      0.19970794	    -11.18925222	     -2.52606843	     -7.46109810	     -4.69008002	      2.00352144	      2.57032387	    178.53618556	    -61.48998306	    119.06550116	     85.03147972	     55.85909783	    177.89476519	    -72.20640825	    117.62160005	     86.08318185	     76.65156801
      1.33000000	     -1.17122458	     -0.63196459	     -1.85846906	     -0.56926535	      1.45823728	     -0.57667611	      9.54353598	     -0.49881928	     -4.78727973	      9.10626646	      0.15893433	     -8.68698403	      0.50543925	     -7.46713559	      8.86174134	     -3.95506755	     -9.15200143	     10.25074736	      0.17890929	    -10.96231954	     -1.59249077	     -7.46713559	     -3.36343577	      1.92212636	      2.70917387	    178.82641790	    -60.61759757	    120.66460406	     81.61897421	     56.82924724	    178.12335073	    -71.92527271	    118.80060470	     84.21471041	     76.78078225
      1.34000000	     -1.70312028	     -0.51429911	     -1.88789283	     -0.55797360	      1.44415160	     -0.57682309	     10.63078507	     -0.62981916	     -4.74932884	      8.20973616	      0.14328693	     -9.67727642	      1.54246607	     -7.47032476	      9.65052863	     -3.85242663	     -9.42897449	      9.36381257	      0.16342936	    -10.65414655	     -0.79451060	     -7.47032476	     -1.76939958	      1.81214457	      2.72833704	    178.97997538	    -59.79200477	    122.17177158	     78.21618762	     57.92573405	    178.54127277	    -71.41342485	    120.45858206	     82.28236168	     77.12110194
